<?xml version="1.0" encoding="UTF-8" standalone="no"?><svg xmlns="http://www.w3.org/2000/svg" xmlns:xlink="http://www.w3.org/1999/xlink" contentStyleType="text/css" height="1269px" preserveAspectRatio="none" style="width:1526px;height:1269px;background:#FFFFFF;" version="1.1" viewBox="0 0 1526 1269" width="1526px" zoomAndPan="magnify"><defs/><g><rect fill="none" height="26.2969" id="_title" style="stroke:none;stroke-width:1.0;" width="186" x="671.75" y="10"/><text fill="#000000" font-family="sans-serif" font-size="14" font-weight="bold" lengthAdjust="spacing" textLength="176" x="676.75" y="27.9951">Matching System : 매칭</text><rect fill="#FFFFFF" height="1050.4688" style="stroke:#181818;stroke-width:1.0;" width="10" x="171.5" y="128.5938"/><rect fill="#FFFFFF" height="29.1328" style="stroke:#181818;stroke-width:1.0;" width="10" x="400.5" y="178.8594"/><rect fill="#FFFFFF" height="29.1328" style="stroke:#181818;stroke-width:1.0;" width="10" x="526.5" y="237.125"/><rect fill="#FFFFFF" height="144.6641" style="stroke:#181818;stroke-width:1.0;" width="10" x="589" y="295.3906"/><rect fill="#FFFFFF" height="29.1328" style="stroke:#181818;stroke-width:1.0;" width="10" x="870" y="469.1875"/><rect fill="#FFFFFF" height="129.5313" style="stroke:#181818;stroke-width:1.0;" width="10" x="943.5" y="527.4531"/><rect fill="#FFFFFF" height="247.4063" style="stroke:#181818;stroke-width:1.0;" width="10" x="1248.5" y="790.3203"/><rect fill="none" height="90.2031" style="stroke:#000000;stroke-width:1.5;" width="430.5" x="137.5" y="671.9844"/><rect fill="none" height="204.2734" style="stroke:#000000;stroke-width:1.5;" width="335.5" x="1185" y="805.3203"/><rect fill="none" height="173.1406" style="stroke:#000000;stroke-width:1.5;" width="315.5" x="1195" y="829.4531"/><rect fill="none" height="119.3359" style="stroke:#000000;stroke-width:1.5;" width="558" x="10" y="1052.7266"/><line style="stroke:#181818;stroke-width:0.5;stroke-dasharray:5.0,5.0;" x1="42" x2="42" y1="118.5938" y2="1189.0625"/><line style="stroke:#181818;stroke-width:0.5;stroke-dasharray:5.0,5.0;" x1="176.5" x2="176.5" y1="118.5938" y2="1189.0625"/><line style="stroke:#181818;stroke-width:0.5;stroke-dasharray:5.0,5.0;" x1="405" x2="405" y1="118.5938" y2="1189.0625"/><line style="stroke:#181818;stroke-width:0.5;stroke-dasharray:5.0,5.0;" x1="531" x2="531" y1="118.5938" y2="1189.0625"/><line style="stroke:#181818;stroke-width:0.5;stroke-dasharray:5.0,5.0;" x1="594" x2="594" y1="118.5938" y2="1189.0625"/><line style="stroke:#181818;stroke-width:0.5;stroke-dasharray:5.0,5.0;" x1="875" x2="875" y1="118.5938" y2="1189.0625"/><line style="stroke:#181818;stroke-width:0.5;stroke-dasharray:5.0,5.0;" x1="948" x2="948" y1="118.5938" y2="1189.0625"/><line style="stroke:#181818;stroke-width:0.5;stroke-dasharray:5.0,5.0;" x1="1253" x2="1253" y1="118.5938" y2="1189.0625"/><text fill="#000000" font-family="sans-serif" font-size="14" lengthAdjust="spacing" textLength="39" x="20" y="115.292">Client</text><ellipse cx="42.5" cy="50.7969" fill="#E2E2F0" rx="8" ry="8" style="stroke:#181818;stroke-width:0.5;"/><path d="M42.5,58.7969 L42.5,85.7969 M29.5,66.7969 L55.5,66.7969 M42.5,85.7969 L29.5,100.7969 M42.5,85.7969 L55.5,100.7969 " fill="none" style="stroke:#181818;stroke-width:0.5;"/><text fill="#000000" font-family="sans-serif" font-size="14" lengthAdjust="spacing" textLength="39" x="20" y="1201.0576">Client</text><ellipse cx="42.5" cy="1212.8594" fill="#E2E2F0" rx="8" ry="8" style="stroke:#181818;stroke-width:0.5;"/><path d="M42.5,1220.8594 L42.5,1247.8594 M29.5,1228.8594 L55.5,1228.8594 M42.5,1247.8594 L29.5,1262.8594 M42.5,1247.8594 L55.5,1262.8594 " fill="none" style="stroke:#181818;stroke-width:0.5;"/><rect fill="#E2E2F0" height="30.2969" rx="2.5" ry="2.5" style="stroke:#181818;stroke-width:0.5;" width="58" x="147.5" y="87.2969"/><text fill="#000000" font-family="sans-serif" font-size="14" lengthAdjust="spacing" textLength="44" x="154.5" y="107.292">Server</text><rect fill="#E2E2F0" height="30.2969" rx="2.5" ry="2.5" style="stroke:#181818;stroke-width:0.5;" width="58" x="147.5" y="1188.0625"/><text fill="#000000" font-family="sans-serif" font-size="14" lengthAdjust="spacing" textLength="44" x="154.5" y="1208.0576">Server</text><rect fill="#E2E2F0" height="30.2969" rx="2.5" ry="2.5" style="stroke:#181818;stroke-width:0.5;" width="71" x="370" y="87.2969"/><text fill="#000000" font-family="sans-serif" font-size="14" lengthAdjust="spacing" textLength="57" x="377" y="107.292">MariaDB</text><rect fill="#E2E2F0" height="30.2969" rx="2.5" ry="2.5" style="stroke:#181818;stroke-width:0.5;" width="71" x="370" y="1188.0625"/><text fill="#000000" font-family="sans-serif" font-size="14" lengthAdjust="spacing" textLength="57" x="377" y="1208.0576">MariaDB</text><rect fill="#E2E2F0" height="30.2969" rx="2.5" ry="2.5" style="stroke:#181818;stroke-width:0.5;" width="53" x="505" y="87.2969"/><text fill="#000000" font-family="sans-serif" font-size="14" lengthAdjust="spacing" textLength="39" x="512" y="107.292">Redis</text><rect fill="#E2E2F0" height="30.2969" rx="2.5" ry="2.5" style="stroke:#181818;stroke-width:0.5;" width="53" x="505" y="1188.0625"/><text fill="#000000" font-family="sans-serif" font-size="14" lengthAdjust="spacing" textLength="39" x="512" y="1208.0576">Redis</text><rect fill="#E2E2F0" height="30.2969" rx="2.5" ry="2.5" style="stroke:#181818;stroke-width:0.5;" width="52" x="568" y="87.2969"/><text fill="#000000" font-family="sans-serif" font-size="14" lengthAdjust="spacing" textLength="38" x="575" y="107.292">RANK</text><rect fill="#E2E2F0" height="30.2969" rx="2.5" ry="2.5" style="stroke:#181818;stroke-width:0.5;" width="52" x="568" y="1188.0625"/><text fill="#000000" font-family="sans-serif" font-size="14" lengthAdjust="spacing" textLength="38" x="575" y="1208.0576">RANK</text><rect fill="#E2E2F0" height="30.2969" rx="2.5" ry="2.5" style="stroke:#181818;stroke-width:0.5;" width="48" x="851" y="87.2969"/><text fill="#000000" font-family="sans-serif" font-size="14" lengthAdjust="spacing" textLength="34" x="858" y="107.292">MMR</text><rect fill="#E2E2F0" height="30.2969" rx="2.5" ry="2.5" style="stroke:#181818;stroke-width:0.5;" width="48" x="851" y="1188.0625"/><text fill="#000000" font-family="sans-serif" font-size="14" lengthAdjust="spacing" textLength="34" x="858" y="1208.0576">MMR</text><rect fill="#E2E2F0" height="30.2969" rx="2.5" ry="2.5" style="stroke:#181818;stroke-width:0.5;" width="79" x="909" y="87.2969"/><text fill="#000000" font-family="sans-serif" font-size="14" lengthAdjust="spacing" textLength="65" x="916" y="107.292">POSITION</text><rect fill="#E2E2F0" height="30.2969" rx="2.5" ry="2.5" style="stroke:#181818;stroke-width:0.5;" width="79" x="909" y="1188.0625"/><text fill="#000000" font-family="sans-serif" font-size="14" lengthAdjust="spacing" textLength="65" x="916" y="1208.0576">POSITION</text><rect fill="#E2E2F0" height="30.2969" rx="2.5" ry="2.5" style="stroke:#181818;stroke-width:0.5;" width="97" x="1205" y="87.2969"/><text fill="#000000" font-family="sans-serif" font-size="14" lengthAdjust="spacing" textLength="83" x="1212" y="107.292">TeamCheck</text><rect fill="#E2E2F0" height="30.2969" rx="2.5" ry="2.5" style="stroke:#181818;stroke-width:0.5;" width="97" x="1205" y="1188.0625"/><text fill="#000000" font-family="sans-serif" font-size="14" lengthAdjust="spacing" textLength="83" x="1212" y="1208.0576">TeamCheck</text><rect fill="#FFFFFF" height="1050.4688" style="stroke:#181818;stroke-width:1.0;" width="10" x="171.5" y="128.5938"/><rect fill="#FFFFFF" height="29.1328" style="stroke:#181818;stroke-width:1.0;" width="10" x="400.5" y="178.8594"/><rect fill="#FFFFFF" height="29.1328" style="stroke:#181818;stroke-width:1.0;" width="10" x="526.5" y="237.125"/><rect fill="#FFFFFF" height="144.6641" style="stroke:#181818;stroke-width:1.0;" width="10" x="589" y="295.3906"/><rect fill="#FFFFFF" height="29.1328" style="stroke:#181818;stroke-width:1.0;" width="10" x="870" y="469.1875"/><rect fill="#FFFFFF" height="129.5313" style="stroke:#181818;stroke-width:1.0;" width="10" x="943.5" y="527.4531"/><rect fill="#FFFFFF" height="247.4063" style="stroke:#181818;stroke-width:1.0;" width="10" x="1248.5" y="790.3203"/><polygon fill="#181818" points="159.5,145.7266,169.5,149.7266,159.5,153.7266,163.5,149.7266" style="stroke:#181818;stroke-width:1.0;"/><line style="stroke:#181818;stroke-width:1.0;" x1="42.5" x2="165.5" y1="149.7266" y2="149.7266"/><text fill="#000000" font-family="sans-serif" font-size="13" font-weight="bold" lengthAdjust="spacing" textLength="9" x="49.5" y="144.6606">1</text><text fill="#000000" font-family="sans-serif" font-size="13" lengthAdjust="spacing" textLength="92" x="62.5" y="144.6606">회원 시퀀스 전달</text><polygon fill="#181818" points="388.5,174.8594,398.5,178.8594,388.5,182.8594,392.5,178.8594" style="stroke:#181818;stroke-width:1.0;"/><line style="stroke:#181818;stroke-width:1.0;" x1="181.5" x2="394.5" y1="178.8594" y2="178.8594"/><text fill="#000000" font-family="sans-serif" font-size="13" font-weight="bold" lengthAdjust="spacing" textLength="9" x="188.5" y="173.7935">2</text><text fill="#000000" font-family="sans-serif" font-size="13" lengthAdjust="spacing" textLength="182" x="201.5" y="173.7935">회원 정보 및 SETTING 정보 조회</text><polygon fill="#181818" points="192.5,203.9922,182.5,207.9922,192.5,211.9922,188.5,207.9922" style="stroke:#181818;stroke-width:1.0;"/><line style="stroke:#181818;stroke-width:1.0;" x1="186.5" x2="404.5" y1="207.9922" y2="207.9922"/><text fill="#000000" font-family="sans-serif" font-size="13" font-weight="bold" lengthAdjust="spacing" textLength="9" x="198.5" y="202.9263">3</text><text fill="#000000" font-family="sans-serif" font-size="13" lengthAdjust="spacing" textLength="182" x="211.5" y="202.9263">회원 정보 및 SETTING 정보 전달</text><polygon fill="#181818" points="514.5,233.125,524.5,237.125,514.5,241.125,518.5,237.125" style="stroke:#181818;stroke-width:1.0;"/><line style="stroke:#181818;stroke-width:1.0;" x1="181.5" x2="520.5" y1="237.125" y2="237.125"/><text fill="#000000" font-family="sans-serif" font-size="13" font-weight="bold" lengthAdjust="spacing" textLength="9" x="188.5" y="232.0591">4</text><text fill="#000000" font-family="sans-serif" font-size="13" lengthAdjust="spacing" textLength="121" x="201.5" y="232.0591">전체 TEAM LIST 조회</text><polygon fill="#181818" points="192.5,262.2578,182.5,266.2578,192.5,270.2578,188.5,266.2578" style="stroke:#181818;stroke-width:1.0;"/><line style="stroke:#181818;stroke-width:1.0;" x1="186.5" x2="530.5" y1="266.2578" y2="266.2578"/><text fill="#000000" font-family="sans-serif" font-size="13" font-weight="bold" lengthAdjust="spacing" textLength="9" x="198.5" y="261.1919">5</text><text fill="#000000" font-family="sans-serif" font-size="13" lengthAdjust="spacing" textLength="121" x="211.5" y="261.1919">전체 TEAM LIST 전달</text><polygon fill="#181818" points="577,291.3906,587,295.3906,577,299.3906,581,295.3906" style="stroke:#181818;stroke-width:1.0;"/><line style="stroke:#181818;stroke-width:1.0;" x1="181.5" x2="583" y1="295.3906" y2="295.3906"/><text fill="#000000" font-family="sans-serif" font-size="13" font-weight="bold" lengthAdjust="spacing" textLength="9" x="188.5" y="290.3247">6</text><text fill="#000000" font-family="sans-serif" font-size="13" lengthAdjust="spacing" textLength="103" x="201.5" y="290.3247">TEAM 리스트 전달</text><polygon fill="#181818" points="416.5,320.5234,406.5,324.5234,416.5,328.5234,412.5,324.5234" style="stroke:#181818;stroke-width:1.0;"/><line style="stroke:#181818;stroke-width:1.0;" x1="410.5" x2="588" y1="324.5234" y2="324.5234"/><text fill="#000000" font-family="sans-serif" font-size="13" font-weight="bold" lengthAdjust="spacing" textLength="9" x="422.5" y="319.4575">7</text><text fill="#000000" font-family="sans-serif" font-size="13" lengthAdjust="spacing" textLength="119" x="435.5" y="319.4575">RANK 전체 정보 조회</text><polygon fill="#181818" points="577,349.6563,587,353.6563,577,357.6563,581,353.6563" style="stroke:#181818;stroke-width:1.0;"/><line style="stroke:#181818;stroke-width:1.0;" x1="405.5" x2="583" y1="353.6563" y2="353.6563"/><text fill="#000000" font-family="sans-serif" font-size="13" font-weight="bold" lengthAdjust="spacing" textLength="9" x="412.5" y="348.5903">8</text><text fill="#000000" font-family="sans-serif" font-size="13" lengthAdjust="spacing" textLength="119" x="425.5" y="348.5903">RANK 전체 정보 전달</text><line style="stroke:#181818;stroke-width:1.0;stroke-dasharray:2.0,2.0;" x1="599" x2="641" y1="397.9219" y2="397.9219"/><line style="stroke:#181818;stroke-width:1.0;stroke-dasharray:2.0,2.0;" x1="641" x2="641" y1="397.9219" y2="410.9219"/><line style="stroke:#181818;stroke-width:1.0;stroke-dasharray:2.0,2.0;" x1="600" x2="641" y1="410.9219" y2="410.9219"/><polygon fill="#181818" points="610,406.9219,600,410.9219,610,414.9219,606,410.9219" style="stroke:#181818;stroke-width:1.0;"/><text fill="#000000" font-family="sans-serif" font-size="13" font-weight="bold" lengthAdjust="spacing" textLength="9" x="606" y="385.2896">9</text><text fill="#000000" font-family="sans-serif" font-size="13" lengthAdjust="spacing" textLength="115" x="619" y="377.7231">RANK 전체 정보에서</text><text fill="#000000" font-family="sans-serif" font-size="13" lengthAdjust="spacing" textLength="240" x="623" y="392.856">회원 RANK의 레벨에 맞는 RANK LIST 생성</text><polygon fill="#181818" points="192.5,436.0547,182.5,440.0547,192.5,444.0547,188.5,440.0547" style="stroke:#181818;stroke-width:1.0;"/><line style="stroke:#181818;stroke-width:1.0;" x1="186.5" x2="593" y1="440.0547" y2="440.0547"/><text fill="#000000" font-family="sans-serif" font-size="13" font-weight="bold" lengthAdjust="spacing" textLength="18" x="198.5" y="434.9888">10</text><text fill="#000000" font-family="sans-serif" font-size="13" lengthAdjust="spacing" textLength="93" x="220.5" y="434.9888">RANK LIST 전달</text><polygon fill="#181818" points="858,465.1875,868,469.1875,858,473.1875,862,469.1875" style="stroke:#181818;stroke-width:1.0;"/><line style="stroke:#181818;stroke-width:1.0;" x1="181.5" x2="864" y1="469.1875" y2="469.1875"/><text fill="#000000" font-family="sans-serif" font-size="13" font-weight="bold" lengthAdjust="spacing" textLength="18" x="188.5" y="464.1216">11</text><text fill="#000000" font-family="sans-serif" font-size="13" lengthAdjust="spacing" textLength="347" x="210.5" y="464.1216">RANK LIST에서 회원의 MMR 범위와 일치하는 MMR LIST 생성</text><polygon fill="#181818" points="192.5,494.3203,182.5,498.3203,192.5,502.3203,188.5,498.3203" style="stroke:#181818;stroke-width:1.0;"/><line style="stroke:#181818;stroke-width:1.0;" x1="186.5" x2="874" y1="498.3203" y2="498.3203"/><text fill="#000000" font-family="sans-serif" font-size="13" font-weight="bold" lengthAdjust="spacing" textLength="18" x="198.5" y="493.2544">12</text><text fill="#000000" font-family="sans-serif" font-size="13" lengthAdjust="spacing" textLength="88" x="220.5" y="493.2544">MMR LIST 전달</text><polygon fill="#181818" points="931.5,523.4531,941.5,527.4531,931.5,531.4531,935.5,527.4531" style="stroke:#181818;stroke-width:1.0;"/><line style="stroke:#181818;stroke-width:1.0;" x1="181.5" x2="937.5" y1="527.4531" y2="527.4531"/><text fill="#000000" font-family="sans-serif" font-size="13" font-weight="bold" lengthAdjust="spacing" textLength="18" x="188.5" y="522.3872">13</text><text fill="#000000" font-family="sans-serif" font-size="13" lengthAdjust="spacing" textLength="98" x="210.5" y="522.3872">MMR 리스트 전달</text><polygon fill="#181818" points="542.5,552.5859,532.5,556.5859,542.5,560.5859,538.5,556.5859" style="stroke:#181818;stroke-width:1.0;"/><line style="stroke:#181818;stroke-width:1.0;" x1="536.5" x2="942.5" y1="556.5859" y2="556.5859"/><text fill="#000000" font-family="sans-serif" font-size="13" font-weight="bold" lengthAdjust="spacing" textLength="18" x="548.5" y="551.52">14</text><text fill="#000000" font-family="sans-serif" font-size="13" lengthAdjust="spacing" textLength="116" x="570.5" y="551.52">POSITION 정보 조회</text><polygon fill="#181818" points="931.5,581.7188,941.5,585.7188,931.5,589.7188,935.5,585.7188" style="stroke:#181818;stroke-width:1.0;"/><line style="stroke:#181818;stroke-width:1.0;" x1="531.5" x2="937.5" y1="585.7188" y2="585.7188"/><text fill="#000000" font-family="sans-serif" font-size="13" font-weight="bold" lengthAdjust="spacing" textLength="18" x="538.5" y="580.6528">15</text><text fill="#000000" font-family="sans-serif" font-size="13" lengthAdjust="spacing" textLength="116" x="560.5" y="580.6528">POSITION 정보 전달</text><line style="stroke:#181818;stroke-width:1.0;stroke-dasharray:2.0,2.0;" x1="953.5" x2="995.5" y1="614.8516" y2="614.8516"/><line style="stroke:#181818;stroke-width:1.0;stroke-dasharray:2.0,2.0;" x1="995.5" x2="995.5" y1="614.8516" y2="627.8516"/><line style="stroke:#181818;stroke-width:1.0;stroke-dasharray:2.0,2.0;" x1="954.5" x2="995.5" y1="627.8516" y2="627.8516"/><polygon fill="#181818" points="964.5,623.8516,954.5,627.8516,964.5,631.8516,960.5,627.8516" style="stroke:#181818;stroke-width:1.0;"/><text fill="#000000" font-family="sans-serif" font-size="13" font-weight="bold" lengthAdjust="spacing" textLength="18" x="960.5" y="609.7856">16</text><text fill="#000000" font-family="sans-serif" font-size="13" lengthAdjust="spacing" textLength="259" x="982.5" y="609.7856">회원의 POSITION가 일치하는 TEAM 정보 생성</text><polygon fill="#181818" points="192.5,652.9844,182.5,656.9844,192.5,660.9844,188.5,656.9844" style="stroke:#181818;stroke-width:1.0;"/><line style="stroke:#181818;stroke-width:1.0;" x1="186.5" x2="947.5" y1="656.9844" y2="656.9844"/><text fill="#000000" font-family="sans-serif" font-size="13" font-weight="bold" lengthAdjust="spacing" textLength="18" x="198.5" y="651.9185">17</text><text fill="#000000" font-family="sans-serif" font-size="13" lengthAdjust="spacing" textLength="91" x="220.5" y="651.9185">TEAM 정보 전달</text><path d="M137.5,671.9844 L201.5,671.9844 L201.5,679.1172 L191.5,689.1172 L137.5,689.1172 L137.5,671.9844 " fill="#EEEEEE" style="stroke:#000000;stroke-width:1.5;"/><rect fill="none" height="90.2031" style="stroke:#000000;stroke-width:1.5;" width="430.5" x="137.5" y="671.9844"/><text fill="#000000" font-family="sans-serif" font-size="13" font-weight="bold" lengthAdjust="spacing" textLength="19" x="152.5" y="685.0513">alt</text><text fill="#000000" font-family="sans-serif" font-size="11" font-weight="bold" lengthAdjust="spacing" textLength="122" x="216.5" y="684.1948">[일치하는 팀이 있는 경우]</text><polygon fill="#181818" points="519.5,706.25,529.5,710.25,519.5,714.25,523.5,710.25" style="stroke:#181818;stroke-width:1.0;"/><line style="stroke:#181818;stroke-width:1.0;" x1="181.5" x2="525.5" y1="710.25" y2="710.25"/><text fill="#000000" font-family="sans-serif" font-size="13" font-weight="bold" lengthAdjust="spacing" textLength="18" x="188.5" y="705.1841">18</text><text fill="#000000" font-family="sans-serif" font-size="13" lengthAdjust="spacing" textLength="304" x="210.5" y="705.1841">해당 팀에 회원 정보 추가, 일치하는 팀이 새로운 팀 생성</text><line style="stroke:#000000;stroke-width:1.0;stroke-dasharray:2.0,2.0;" x1="137.5" x2="568" y1="719.25" y2="719.25"/><text fill="#000000" font-family="sans-serif" font-size="11" font-weight="bold" lengthAdjust="spacing" textLength="122" x="142.5" y="729.4604">[일치하는 팀이 없는 경우]</text><polygon fill="#181818" points="519.5,750.1875,529.5,754.1875,519.5,758.1875,523.5,754.1875" style="stroke:#181818;stroke-width:1.0;"/><line style="stroke:#181818;stroke-width:1.0;" x1="181.5" x2="525.5" y1="754.1875" y2="754.1875"/><text fill="#000000" font-family="sans-serif" font-size="13" font-weight="bold" lengthAdjust="spacing" textLength="18" x="188.5" y="749.1216">19</text><text fill="#000000" font-family="sans-serif" font-size="13" lengthAdjust="spacing" textLength="188" x="210.5" y="749.1216">새로운 팀 생성해서 회원 정보 추가</text><polygon fill="#181818" points="1236.5,786.3203,1246.5,790.3203,1236.5,794.3203,1240.5,790.3203" style="stroke:#181818;stroke-width:1.0;"/><line style="stroke:#181818;stroke-width:1.0;" x1="181.5" x2="1242.5" y1="790.3203" y2="790.3203"/><text fill="#000000" font-family="sans-serif" font-size="13" font-weight="bold" lengthAdjust="spacing" textLength="18" x="188.5" y="785.2544">20</text><text fill="#000000" font-family="sans-serif" font-size="13" lengthAdjust="spacing" textLength="91" x="210.5" y="785.2544">TEAM 정보 전달</text><path d="M1185,805.3203 L1262,805.3203 L1262,812.4531 L1252,822.4531 L1185,822.4531 L1185,805.3203 " fill="#EEEEEE" style="stroke:#000000;stroke-width:1.5;"/><rect fill="none" height="204.2734" style="stroke:#000000;stroke-width:1.5;" width="335.5" x="1185" y="805.3203"/><text fill="#000000" font-family="sans-serif" font-size="13" font-weight="bold" lengthAdjust="spacing" textLength="32" x="1200" y="818.3872">loop</text><text fill="#000000" font-family="sans-serif" font-size="11" font-weight="bold" lengthAdjust="spacing" textLength="210" x="1277" y="817.5308">[최대 1시간 || 메세지가 생성되지 않은 경우]</text><path d="M1195,829.4531 L1259,829.4531 L1259,836.5859 L1249,846.5859 L1195,846.5859 L1195,829.4531 " fill="#EEEEEE" style="stroke:#000000;stroke-width:1.5;"/><rect fill="none" height="173.1406" style="stroke:#000000;stroke-width:1.5;" width="315.5" x="1195" y="829.4531"/><text fill="#000000" font-family="sans-serif" font-size="13" font-weight="bold" lengthAdjust="spacing" textLength="19" x="1210" y="842.52">alt</text><text fill="#000000" font-family="sans-serif" font-size="11" font-weight="bold" lengthAdjust="spacing" textLength="144" x="1274" y="841.6636">[매칭 시간이 1시간 넘은 경우]</text><line style="stroke:#181818;stroke-width:1.0;" x1="1258.5" x2="1300.5" y1="867.7188" y2="867.7188"/><line style="stroke:#181818;stroke-width:1.0;" x1="1300.5" x2="1300.5" y1="867.7188" y2="880.7188"/><line style="stroke:#181818;stroke-width:1.0;" x1="1259.5" x2="1300.5" y1="880.7188" y2="880.7188"/><polygon fill="#181818" points="1269.5,876.7188,1259.5,880.7188,1269.5,884.7188,1265.5,880.7188" style="stroke:#181818;stroke-width:1.0;"/><text fill="#000000" font-family="sans-serif" font-size="13" font-weight="bold" lengthAdjust="spacing" textLength="18" x="1265.5" y="862.6528">21</text><text fill="#000000" font-family="sans-serif" font-size="13" lengthAdjust="spacing" textLength="211" x="1287.5" y="862.6528">매칭 실패 메세지 "auto_cancel" 생성</text><line style="stroke:#000000;stroke-width:1.0;stroke-dasharray:2.0,2.0;" x1="1195" x2="1510.5" y1="889.7188" y2="889.7188"/><text fill="#000000" font-family="sans-serif" font-size="11" font-weight="bold" lengthAdjust="spacing" textLength="152" x="1200" y="899.9292">[회원이 매칭을 중도 취소한경우]</text><line style="stroke:#181818;stroke-width:1.0;" x1="1258.5" x2="1300.5" y1="924.6563" y2="924.6563"/><line style="stroke:#181818;stroke-width:1.0;" x1="1300.5" x2="1300.5" y1="924.6563" y2="937.6563"/><line style="stroke:#181818;stroke-width:1.0;" x1="1259.5" x2="1300.5" y1="937.6563" y2="937.6563"/><polygon fill="#181818" points="1269.5,933.6563,1259.5,937.6563,1269.5,941.6563,1265.5,937.6563" style="stroke:#181818;stroke-width:1.0;"/><text fill="#000000" font-family="sans-serif" font-size="13" font-weight="bold" lengthAdjust="spacing" textLength="18" x="1265.5" y="919.5903">22</text><text fill="#000000" font-family="sans-serif" font-size="13" lengthAdjust="spacing" textLength="175" x="1287.5" y="919.5903">매칭 취소 메세지 "cancel" 생성</text><line style="stroke:#000000;stroke-width:1.0;stroke-dasharray:2.0,2.0;" x1="1195" x2="1510.5" y1="946.6563" y2="946.6563"/><text fill="#000000" font-family="sans-serif" font-size="11" font-weight="bold" lengthAdjust="spacing" textLength="92" x="1200" y="956.8667">[정원이 다 찬 경우]</text><line style="stroke:#181818;stroke-width:1.0;" x1="1258.5" x2="1300.5" y1="981.5938" y2="981.5938"/><line style="stroke:#181818;stroke-width:1.0;" x1="1300.5" x2="1300.5" y1="981.5938" y2="994.5938"/><line style="stroke:#181818;stroke-width:1.0;" x1="1259.5" x2="1300.5" y1="994.5938" y2="994.5938"/><polygon fill="#181818" points="1269.5,990.5938,1259.5,994.5938,1269.5,998.5938,1265.5,994.5938" style="stroke:#181818;stroke-width:1.0;"/><text fill="#000000" font-family="sans-serif" font-size="13" font-weight="bold" lengthAdjust="spacing" textLength="18" x="1265.5" y="976.5278">23</text><text fill="#000000" font-family="sans-serif" font-size="13" lengthAdjust="spacing" textLength="185" x="1287.5" y="976.5278">매칭 성공 메세지 "success" 생성</text><polygon fill="#181818" points="192.5,1033.7266,182.5,1037.7266,192.5,1041.7266,188.5,1037.7266" style="stroke:#181818;stroke-width:1.0;"/><line style="stroke:#181818;stroke-width:1.0;" x1="186.5" x2="1252.5" y1="1037.7266" y2="1037.7266"/><text fill="#000000" font-family="sans-serif" font-size="13" font-weight="bold" lengthAdjust="spacing" textLength="18" x="198.5" y="1032.6606">24</text><text fill="#000000" font-family="sans-serif" font-size="13" lengthAdjust="spacing" textLength="64" x="220.5" y="1032.6606">메세지 전달</text><path d="M10,1052.7266 L74,1052.7266 L74,1059.8594 L64,1069.8594 L10,1069.8594 L10,1052.7266 " fill="#EEEEEE" style="stroke:#000000;stroke-width:1.5;"/><rect fill="none" height="119.3359" style="stroke:#000000;stroke-width:1.5;" width="558" x="10" y="1052.7266"/><text fill="#000000" font-family="sans-serif" font-size="13" font-weight="bold" lengthAdjust="spacing" textLength="19" x="25" y="1065.7935">alt</text><text fill="#000000" font-family="sans-serif" font-size="11" font-weight="bold" lengthAdjust="spacing" textLength="155" x="89" y="1064.937">[메세지가 "success" 일 경우]</text><polygon fill="#181818" points="519.5,1086.9922,529.5,1090.9922,519.5,1094.9922,523.5,1090.9922" style="stroke:#181818;stroke-width:1.0;"/><line style="stroke:#181818;stroke-width:1.0;" x1="181.5" x2="525.5" y1="1090.9922" y2="1090.9922"/><text fill="#000000" font-family="sans-serif" font-size="13" font-weight="bold" lengthAdjust="spacing" textLength="18" x="188.5" y="1085.9263">25</text><text fill="#000000" font-family="sans-serif" font-size="13" lengthAdjust="spacing" textLength="108" x="210.5" y="1085.9263">매칭 동의 시간 추가</text><polygon fill="#181818" points="53.5,1116.125,43.5,1120.125,53.5,1124.125,49.5,1120.125" style="stroke:#181818;stroke-width:1.0;"/><line style="stroke:#181818;stroke-width:1.0;" x1="47.5" x2="170.5" y1="1120.125" y2="1120.125"/><text fill="#000000" font-family="sans-serif" font-size="13" font-weight="bold" lengthAdjust="spacing" textLength="18" x="59.5" y="1115.0591">26</text><text fill="#000000" font-family="sans-serif" font-size="13" lengthAdjust="spacing" textLength="64" x="81.5" y="1115.0591">메세지 전달</text><line style="stroke:#000000;stroke-width:1.0;stroke-dasharray:2.0,2.0;" x1="10" x2="568" y1="1129.125" y2="1129.125"/><text fill="#000000" font-family="sans-serif" font-size="11" font-weight="bold" lengthAdjust="spacing" textLength="165" x="15" y="1139.3354">[메세지가 "success" 아닐 경우]</text><polygon fill="#181818" points="53.5,1160.0625,43.5,1164.0625,53.5,1168.0625,49.5,1164.0625" style="stroke:#181818;stroke-width:1.0;"/><line style="stroke:#181818;stroke-width:1.0;" x1="47.5" x2="170.5" y1="1164.0625" y2="1164.0625"/><text fill="#000000" font-family="sans-serif" font-size="13" font-weight="bold" lengthAdjust="spacing" textLength="18" x="59.5" y="1158.9966">27</text><text fill="#000000" font-family="sans-serif" font-size="13" lengthAdjust="spacing" textLength="64" x="81.5" y="1158.9966">메세지 전달</text><!--MD5=[2186ed49771a8c4a052751b5a3298c2e]
@startuml
autonumber

title Matching System : 매칭
actor Client

activate Server
Client -> Server : 회원 시퀀스 전달

Server -> MariaDB : 회원 정보 및 SETTING 정보 조회

activate MariaDB
MariaDB -> Server : 회원 정보 및 SETTING 정보 전달
deactivate MariaDB

Server -> Redis : 전체 TEAM LIST 조회

activate Redis
Redis -> Server : 전체 TEAM LIST 전달
deactivate Redis

Server -> RANK : TEAM 리스트 전달

activate RANK
RANK -> MariaDB : RANK 전체 정보 조회

MariaDB -> RANK : RANK 전체 정보 전달

RANK - -> RANK : RANK 전체 정보에서\n 회원 RANK의 레벨에 맞는 RANK LIST 생성

RANK -> Server : RANK LIST 전달
deactivate RANK

Server -> MMR : RANK LIST에서 회원의 MMR 범위와 일치하는 MMR LIST 생성

activate MMR
MMR -> Server : MMR LIST 전달
deactivate MMR

Server -> POSITION : MMR 리스트 전달

activate POSITION
POSITION -> Redis : POSITION 정보 조회

Redis -> POSITION : POSITION 정보 전달

POSITION - -> POSITION : 회원의 POSITION가 일치하는 TEAM 정보 생성

POSITION -> Server : TEAM 정보 전달
deactivate POSITION

alt 일치하는 팀이 있는 경우
Server -> Redis : 해당 팀에 회원 정보 추가, 일치하는 팀이 새로운 팀 생성
else 일치하는 팀이 없는 경우
Server -> Redis : 새로운 팀 생성해서 회원 정보 추가
end

Server -> TeamCheck : TEAM 정보 전달

activate TeamCheck
loop 최대 1시간 || 메세지가 생성되지 않은 경우
  alt 매칭 시간이 1시간 넘은 경우
  TeamCheck -> TeamCheck : 매칭 실패 메세지 "auto_cancel" 생성

  else 회원이 매칭을 중도 취소한경우 
  TeamCheck -> TeamCheck : 매칭 취소 메세지 "cancel" 생성
  'end
  else 정원이 다 찬 경우
  TeamCheck -> TeamCheck : 매칭 성공 메세지 "success" 생성 
  end
end

TeamCheck -> Server : 메세지 전달
deactivate TeamCheck

alt 메세지가 "success" 일 경우
Server -> Redis : 매칭 동의 시간 추가
Server -> Client : 메세지 전달
else 메세지가 "success" 아닐 경우
Server -> Client : 메세지 전달
end
deactivate Server
@enduml

@startuml
autonumber

title Matching System : 매칭
actor Client

activate Server
Client -> Server : 회원 시퀀스 전달

Server -> MariaDB : 회원 정보 및 SETTING 정보 조회

activate MariaDB
MariaDB -> Server : 회원 정보 및 SETTING 정보 전달
deactivate MariaDB

Server -> Redis : 전체 TEAM LIST 조회

activate Redis
Redis -> Server : 전체 TEAM LIST 전달
deactivate Redis

Server -> RANK : TEAM 리스트 전달

activate RANK
RANK -> MariaDB : RANK 전체 정보 조회

MariaDB -> RANK : RANK 전체 정보 전달

RANK - -> RANK : RANK 전체 정보에서\n 회원 RANK의 레벨에 맞는 RANK LIST 생성

RANK -> Server : RANK LIST 전달
deactivate RANK

Server -> MMR : RANK LIST에서 회원의 MMR 범위와 일치하는 MMR LIST 생성

activate MMR
MMR -> Server : MMR LIST 전달
deactivate MMR

Server -> POSITION : MMR 리스트 전달

activate POSITION
POSITION -> Redis : POSITION 정보 조회

Redis -> POSITION : POSITION 정보 전달

POSITION - -> POSITION : 회원의 POSITION가 일치하는 TEAM 정보 생성

POSITION -> Server : TEAM 정보 전달
deactivate POSITION

alt 일치하는 팀이 있는 경우
Server -> Redis : 해당 팀에 회원 정보 추가, 일치하는 팀이 새로운 팀 생성
else 일치하는 팀이 없는 경우
Server -> Redis : 새로운 팀 생성해서 회원 정보 추가
end

Server -> TeamCheck : TEAM 정보 전달

activate TeamCheck
loop 최대 1시간 || 메세지가 생성되지 않은 경우
  alt 매칭 시간이 1시간 넘은 경우
  TeamCheck -> TeamCheck : 매칭 실패 메세지 "auto_cancel" 생성

  else 회원이 매칭을 중도 취소한경우 
  TeamCheck -> TeamCheck : 매칭 취소 메세지 "cancel" 생성
  else 정원이 다 찬 경우
  TeamCheck -> TeamCheck : 매칭 성공 메세지 "success" 생성 
  end
end

TeamCheck -> Server : 메세지 전달
deactivate TeamCheck

alt 메세지가 "success" 일 경우
Server -> Redis : 매칭 동의 시간 추가
Server -> Client : 메세지 전달
else 메세지가 "success" 아닐 경우
Server -> Client : 메세지 전달
end
deactivate Server
@enduml

PlantUML version 1.2022.7(Mon Aug 22 17:01:30 UTC 2022)
(GPL source distribution)
Java Runtime: OpenJDK Runtime Environment
JVM: OpenJDK 64-Bit Server VM
Default Encoding: UTF-8
Language: en
Country: null
--></g></svg>