<?xml version="1.0" encoding="UTF-8" standalone="no"?><svg xmlns="http://www.w3.org/2000/svg" xmlns:xlink="http://www.w3.org/1999/xlink" contentStyleType="text/css" height="1021px" preserveAspectRatio="none" style="width:583px;height:1021px;background:#FFFFFF;" version="1.1" viewBox="0 0 583 1021" width="583px" zoomAndPan="magnify"><defs/><g><rect fill="none" height="26.2969" id="_title" style="stroke:none;stroke-width:1.0;" width="254" x="165.5" y="10"/><text fill="#000000" font-family="sans-serif" font-size="14" font-weight="bold" lengthAdjust="spacing" textLength="244" x="170.5" y="27.9951">Matching Position System : 매칭</text><rect fill="#FFFFFF" height="802.2734" style="stroke:#181818;stroke-width:1.0;" width="10" x="171.5" y="128.5938"/><rect fill="#FFFFFF" height="29.1328" style="stroke:#181818;stroke-width:1.0;" width="10" x="462.5" y="178.8594"/><rect fill="#FFFFFF" height="29.1328" style="stroke:#181818;stroke-width:1.0;" width="10" x="534.5" y="237.125"/><rect fill="#FFFFFF" height="29.1328" style="stroke:#181818;stroke-width:1.0;" width="10" x="534.5" y="337.5234"/><rect fill="#FFFFFF" height="29.1328" style="stroke:#181818;stroke-width:1.0;" width="10" x="534.5" y="623.1953"/><rect fill="none" height="90.2031" style="stroke:#000000;stroke-width:1.5;" width="438.5" x="137.5" y="423.7891"/><rect fill="none" height="262.5391" style="stroke:#000000;stroke-width:1.5;" width="448.5" x="127.5" y="527.9922"/><rect fill="none" height="116.2031" style="stroke:#000000;stroke-width:1.5;" width="270" x="137.5" y="667.3281"/><rect fill="none" height="119.3359" style="stroke:#000000;stroke-width:1.5;" width="566" x="10" y="804.5313"/><line style="stroke:#181818;stroke-width:0.5;stroke-dasharray:5.0,5.0;" x1="42" x2="42" y1="118.5938" y2="940.8672"/><line style="stroke:#181818;stroke-width:0.5;stroke-dasharray:5.0,5.0;" x1="176.5" x2="176.5" y1="118.5938" y2="940.8672"/><line style="stroke:#181818;stroke-width:0.5;stroke-dasharray:5.0,5.0;" x1="467" x2="467" y1="118.5938" y2="940.8672"/><line style="stroke:#181818;stroke-width:0.5;stroke-dasharray:5.0,5.0;" x1="539" x2="539" y1="118.5938" y2="940.8672"/><text fill="#000000" font-family="sans-serif" font-size="14" lengthAdjust="spacing" textLength="39" x="20" y="115.292">Client</text><ellipse cx="42.5" cy="50.7969" fill="#E2E2F0" rx="8" ry="8" style="stroke:#181818;stroke-width:0.5;"/><path d="M42.5,58.7969 L42.5,85.7969 M29.5,66.7969 L55.5,66.7969 M42.5,85.7969 L29.5,100.7969 M42.5,85.7969 L55.5,100.7969 " fill="none" style="stroke:#181818;stroke-width:0.5;"/><text fill="#000000" font-family="sans-serif" font-size="14" lengthAdjust="spacing" textLength="39" x="20" y="952.8623">Client</text><ellipse cx="42.5" cy="964.6641" fill="#E2E2F0" rx="8" ry="8" style="stroke:#181818;stroke-width:0.5;"/><path d="M42.5,972.6641 L42.5,999.6641 M29.5,980.6641 L55.5,980.6641 M42.5,999.6641 L29.5,1014.6641 M42.5,999.6641 L55.5,1014.6641 " fill="none" style="stroke:#181818;stroke-width:0.5;"/><rect fill="#E2E2F0" height="30.2969" rx="2.5" ry="2.5" style="stroke:#181818;stroke-width:0.5;" width="58" x="147.5" y="87.2969"/><text fill="#000000" font-family="sans-serif" font-size="14" lengthAdjust="spacing" textLength="44" x="154.5" y="107.292">Server</text><rect fill="#E2E2F0" height="30.2969" rx="2.5" ry="2.5" style="stroke:#181818;stroke-width:0.5;" width="58" x="147.5" y="939.8672"/><text fill="#000000" font-family="sans-serif" font-size="14" lengthAdjust="spacing" textLength="44" x="154.5" y="959.8623">Server</text><rect fill="#E2E2F0" height="30.2969" rx="2.5" ry="2.5" style="stroke:#181818;stroke-width:0.5;" width="71" x="432" y="87.2969"/><text fill="#000000" font-family="sans-serif" font-size="14" lengthAdjust="spacing" textLength="57" x="439" y="107.292">MariaDB</text><rect fill="#E2E2F0" height="30.2969" rx="2.5" ry="2.5" style="stroke:#181818;stroke-width:0.5;" width="71" x="432" y="939.8672"/><text fill="#000000" font-family="sans-serif" font-size="14" lengthAdjust="spacing" textLength="57" x="439" y="959.8623">MariaDB</text><rect fill="#E2E2F0" height="30.2969" rx="2.5" ry="2.5" style="stroke:#181818;stroke-width:0.5;" width="53" x="513" y="87.2969"/><text fill="#000000" font-family="sans-serif" font-size="14" lengthAdjust="spacing" textLength="39" x="520" y="107.292">Redis</text><rect fill="#E2E2F0" height="30.2969" rx="2.5" ry="2.5" style="stroke:#181818;stroke-width:0.5;" width="53" x="513" y="939.8672"/><text fill="#000000" font-family="sans-serif" font-size="14" lengthAdjust="spacing" textLength="39" x="520" y="959.8623">Redis</text><rect fill="#FFFFFF" height="802.2734" style="stroke:#181818;stroke-width:1.0;" width="10" x="171.5" y="128.5938"/><rect fill="#FFFFFF" height="29.1328" style="stroke:#181818;stroke-width:1.0;" width="10" x="462.5" y="178.8594"/><rect fill="#FFFFFF" height="29.1328" style="stroke:#181818;stroke-width:1.0;" width="10" x="534.5" y="237.125"/><rect fill="#FFFFFF" height="29.1328" style="stroke:#181818;stroke-width:1.0;" width="10" x="534.5" y="337.5234"/><rect fill="#FFFFFF" height="29.1328" style="stroke:#181818;stroke-width:1.0;" width="10" x="534.5" y="623.1953"/><polygon fill="#181818" points="159.5,145.7266,169.5,149.7266,159.5,153.7266,163.5,149.7266" style="stroke:#181818;stroke-width:1.0;"/><line style="stroke:#181818;stroke-width:1.0;" x1="42.5" x2="165.5" y1="149.7266" y2="149.7266"/><text fill="#000000" font-family="sans-serif" font-size="13" font-weight="bold" lengthAdjust="spacing" textLength="9" x="49.5" y="144.6606">1</text><text fill="#000000" font-family="sans-serif" font-size="13" lengthAdjust="spacing" textLength="92" x="62.5" y="144.6606">회원 시퀀스 전달</text><polygon fill="#181818" points="450.5,174.8594,460.5,178.8594,450.5,182.8594,454.5,178.8594" style="stroke:#181818;stroke-width:1.0;"/><line style="stroke:#181818;stroke-width:1.0;" x1="181.5" x2="456.5" y1="178.8594" y2="178.8594"/><text fill="#000000" font-family="sans-serif" font-size="13" font-weight="bold" lengthAdjust="spacing" textLength="9" x="188.5" y="173.7935">2</text><text fill="#000000" font-family="sans-serif" font-size="13" lengthAdjust="spacing" textLength="182" x="201.5" y="173.7935">회원 정보 및 SETTING 정보 조회</text><polygon fill="#181818" points="192.5,203.9922,182.5,207.9922,192.5,211.9922,188.5,207.9922" style="stroke:#181818;stroke-width:1.0;"/><line style="stroke:#181818;stroke-width:1.0;" x1="186.5" x2="466.5" y1="207.9922" y2="207.9922"/><text fill="#000000" font-family="sans-serif" font-size="13" font-weight="bold" lengthAdjust="spacing" textLength="9" x="198.5" y="202.9263">3</text><text fill="#000000" font-family="sans-serif" font-size="13" lengthAdjust="spacing" textLength="182" x="211.5" y="202.9263">회원 정보 및 SETTING 정보 전달</text><polygon fill="#181818" points="522.5,233.125,532.5,237.125,522.5,241.125,526.5,237.125" style="stroke:#181818;stroke-width:1.0;"/><line style="stroke:#181818;stroke-width:1.0;" x1="181.5" x2="528.5" y1="237.125" y2="237.125"/><text fill="#000000" font-family="sans-serif" font-size="13" font-weight="bold" lengthAdjust="spacing" textLength="9" x="188.5" y="232.0591">4</text><text fill="#000000" font-family="sans-serif" font-size="13" lengthAdjust="spacing" textLength="112" x="201.5" y="232.0591">전체 teamList 조회</text><polygon fill="#181818" points="192.5,262.2578,182.5,266.2578,192.5,270.2578,188.5,266.2578" style="stroke:#181818;stroke-width:1.0;"/><line style="stroke:#181818;stroke-width:1.0;" x1="186.5" x2="538.5" y1="266.2578" y2="266.2578"/><text fill="#000000" font-family="sans-serif" font-size="13" font-weight="bold" lengthAdjust="spacing" textLength="9" x="198.5" y="261.1919">5</text><text fill="#000000" font-family="sans-serif" font-size="13" lengthAdjust="spacing" textLength="112" x="211.5" y="261.1919">전체 teamList 전달</text><line style="stroke:#181818;stroke-width:1.0;stroke-dasharray:2.0,2.0;" x1="181.5" x2="223.5" y1="295.3906" y2="295.3906"/><line style="stroke:#181818;stroke-width:1.0;stroke-dasharray:2.0,2.0;" x1="223.5" x2="223.5" y1="295.3906" y2="308.3906"/><line style="stroke:#181818;stroke-width:1.0;stroke-dasharray:2.0,2.0;" x1="182.5" x2="223.5" y1="308.3906" y2="308.3906"/><polygon fill="#181818" points="192.5,304.3906,182.5,308.3906,192.5,312.3906,188.5,308.3906" style="stroke:#181818;stroke-width:1.0;"/><text fill="#000000" font-family="sans-serif" font-size="13" font-weight="bold" lengthAdjust="spacing" textLength="9" x="188.5" y="290.3247">6</text><text fill="#000000" font-family="sans-serif" font-size="13" lengthAdjust="spacing" textLength="254" x="201.5" y="290.3247">회원의 MMR 범위와 일치하는 MMR LIST 생성</text><polygon fill="#181818" points="522.5,333.5234,532.5,337.5234,522.5,341.5234,526.5,337.5234" style="stroke:#181818;stroke-width:1.0;"/><line style="stroke:#181818;stroke-width:1.0;" x1="181.5" x2="528.5" y1="337.5234" y2="337.5234"/><text fill="#000000" font-family="sans-serif" font-size="13" font-weight="bold" lengthAdjust="spacing" textLength="9" x="188.5" y="332.4575">7</text><text fill="#000000" font-family="sans-serif" font-size="13" lengthAdjust="spacing" textLength="106" x="201.5" y="332.4575">position 정보 조회</text><polygon fill="#181818" points="192.5,362.6563,182.5,366.6563,192.5,370.6563,188.5,366.6563" style="stroke:#181818;stroke-width:1.0;"/><line style="stroke:#181818;stroke-width:1.0;" x1="186.5" x2="538.5" y1="366.6563" y2="366.6563"/><text fill="#000000" font-family="sans-serif" font-size="13" font-weight="bold" lengthAdjust="spacing" textLength="9" x="198.5" y="361.5903">8</text><text fill="#000000" font-family="sans-serif" font-size="13" lengthAdjust="spacing" textLength="106" x="211.5" y="361.5903">position 정보 전달</text><line style="stroke:#181818;stroke-width:1.0;stroke-dasharray:2.0,2.0;" x1="181.5" x2="223.5" y1="395.7891" y2="395.7891"/><line style="stroke:#181818;stroke-width:1.0;stroke-dasharray:2.0,2.0;" x1="223.5" x2="223.5" y1="395.7891" y2="408.7891"/><line style="stroke:#181818;stroke-width:1.0;stroke-dasharray:2.0,2.0;" x1="182.5" x2="223.5" y1="408.7891" y2="408.7891"/><polygon fill="#181818" points="192.5,404.7891,182.5,408.7891,192.5,412.7891,188.5,408.7891" style="stroke:#181818;stroke-width:1.0;"/><text fill="#000000" font-family="sans-serif" font-size="13" font-weight="bold" lengthAdjust="spacing" textLength="9" x="188.5" y="390.7231">9</text><text fill="#000000" font-family="sans-serif" font-size="13" lengthAdjust="spacing" textLength="237" x="201.5" y="390.7231">회원의 position 일치하는 TEAM 정보 생성</text><path d="M137.5,423.7891 L201.5,423.7891 L201.5,430.9219 L191.5,440.9219 L137.5,440.9219 L137.5,423.7891 " fill="#EEEEEE" style="stroke:#000000;stroke-width:1.5;"/><rect fill="none" height="90.2031" style="stroke:#000000;stroke-width:1.5;" width="438.5" x="137.5" y="423.7891"/><text fill="#000000" font-family="sans-serif" font-size="13" font-weight="bold" lengthAdjust="spacing" textLength="19" x="152.5" y="436.856">alt</text><text fill="#000000" font-family="sans-serif" font-size="11" font-weight="bold" lengthAdjust="spacing" textLength="122" x="216.5" y="435.9995">[일치하는 팀이 있는 경우]</text><polygon fill="#181818" points="527.5,458.0547,537.5,462.0547,527.5,466.0547,531.5,462.0547" style="stroke:#181818;stroke-width:1.0;"/><line style="stroke:#181818;stroke-width:1.0;" x1="181.5" x2="533.5" y1="462.0547" y2="462.0547"/><text fill="#000000" font-family="sans-serif" font-size="13" font-weight="bold" lengthAdjust="spacing" textLength="18" x="188.5" y="456.9888">10</text><text fill="#000000" font-family="sans-serif" font-size="13" lengthAdjust="spacing" textLength="136" x="210.5" y="456.9888">해당 팀에 회원 정보 추가</text><line style="stroke:#000000;stroke-width:1.0;stroke-dasharray:2.0,2.0;" x1="137.5" x2="576" y1="471.0547" y2="471.0547"/><text fill="#000000" font-family="sans-serif" font-size="11" font-weight="bold" lengthAdjust="spacing" textLength="122" x="142.5" y="481.2651">[일치하는 팀이 없는 경우]</text><polygon fill="#181818" points="527.5,501.9922,537.5,505.9922,527.5,509.9922,531.5,505.9922" style="stroke:#181818;stroke-width:1.0;"/><line style="stroke:#181818;stroke-width:1.0;" x1="181.5" x2="533.5" y1="505.9922" y2="505.9922"/><text fill="#000000" font-family="sans-serif" font-size="13" font-weight="bold" lengthAdjust="spacing" textLength="18" x="188.5" y="500.9263">11</text><text fill="#000000" font-family="sans-serif" font-size="13" lengthAdjust="spacing" textLength="188" x="210.5" y="500.9263">새로운 팀 생성해서 회원 정보 추가</text><path d="M127.5,527.9922 L191.5,527.9922 L191.5,535.125 L181.5,545.125 L127.5,545.125 L127.5,527.9922 " fill="#EEEEEE" style="stroke:#000000;stroke-width:1.5;"/><rect fill="none" height="262.5391" style="stroke:#000000;stroke-width:1.5;" width="448.5" x="127.5" y="527.9922"/><text fill="#000000" font-family="sans-serif" font-size="13" font-weight="bold" lengthAdjust="spacing" textLength="19" x="142.5" y="541.0591">alt</text><text fill="#000000" font-family="sans-serif" font-size="11" font-weight="bold" lengthAdjust="spacing" textLength="144" x="206.5" y="540.2026">[매칭 시간이 1시간 넘은 경우]</text><line style="stroke:#181818;stroke-width:1.0;" x1="181.5" x2="223.5" y1="566.2578" y2="566.2578"/><line style="stroke:#181818;stroke-width:1.0;" x1="223.5" x2="223.5" y1="566.2578" y2="579.2578"/><line style="stroke:#181818;stroke-width:1.0;" x1="182.5" x2="223.5" y1="579.2578" y2="579.2578"/><polygon fill="#181818" points="192.5,575.2578,182.5,579.2578,192.5,583.2578,188.5,579.2578" style="stroke:#181818;stroke-width:1.0;"/><text fill="#000000" font-family="sans-serif" font-size="13" font-weight="bold" lengthAdjust="spacing" textLength="18" x="188.5" y="561.1919">12</text><text fill="#000000" font-family="sans-serif" font-size="13" lengthAdjust="spacing" textLength="211" x="210.5" y="561.1919">매칭 실패 메세지 "auto_cancel" 생성</text><line style="stroke:#000000;stroke-width:1.0;stroke-dasharray:2.0,2.0;" x1="127.5" x2="576" y1="588.2578" y2="588.2578"/><text fill="#000000" font-family="sans-serif" font-size="11" font-weight="bold" lengthAdjust="spacing" textLength="178" x="132.5" y="598.4683">[매칭 시간이 1시간이 넘지 않은 경우]</text><polygon fill="#181818" points="522.5,619.1953,532.5,623.1953,522.5,627.1953,526.5,623.1953" style="stroke:#181818;stroke-width:1.0;"/><line style="stroke:#181818;stroke-width:1.0;" x1="181.5" x2="528.5" y1="623.1953" y2="623.1953"/><text fill="#000000" font-family="sans-serif" font-size="13" font-weight="bold" lengthAdjust="spacing" textLength="18" x="188.5" y="618.1294">13</text><text fill="#000000" font-family="sans-serif" font-size="13" lengthAdjust="spacing" textLength="141" x="210.5" y="618.1294">match 회원 팀 정보 조회</text><polygon fill="#181818" points="192.5,648.3281,182.5,652.3281,192.5,656.3281,188.5,652.3281" style="stroke:#181818;stroke-width:1.0;"/><line style="stroke:#181818;stroke-width:1.0;" x1="186.5" x2="538.5" y1="652.3281" y2="652.3281"/><text fill="#000000" font-family="sans-serif" font-size="13" font-weight="bold" lengthAdjust="spacing" textLength="18" x="198.5" y="647.2622">14</text><text fill="#000000" font-family="sans-serif" font-size="13" lengthAdjust="spacing" textLength="141" x="220.5" y="647.2622">match 회원 팀 정보 전달</text><path d="M137.5,667.3281 L201.5,667.3281 L201.5,674.4609 L191.5,684.4609 L137.5,684.4609 L137.5,667.3281 " fill="#EEEEEE" style="stroke:#000000;stroke-width:1.5;"/><rect fill="none" height="116.2031" style="stroke:#000000;stroke-width:1.5;" width="270" x="137.5" y="667.3281"/><text fill="#000000" font-family="sans-serif" font-size="13" font-weight="bold" lengthAdjust="spacing" textLength="19" x="152.5" y="680.395">alt</text><text fill="#000000" font-family="sans-serif" font-size="11" font-weight="bold" lengthAdjust="spacing" textLength="152" x="216.5" y="679.5386">[회원이 매칭을 중도 취소한경우]</text><line style="stroke:#181818;stroke-width:1.0;" x1="181.5" x2="223.5" y1="705.5938" y2="705.5938"/><line style="stroke:#181818;stroke-width:1.0;" x1="223.5" x2="223.5" y1="705.5938" y2="718.5938"/><line style="stroke:#181818;stroke-width:1.0;" x1="182.5" x2="223.5" y1="718.5938" y2="718.5938"/><polygon fill="#181818" points="192.5,714.5938,182.5,718.5938,192.5,722.5938,188.5,718.5938" style="stroke:#181818;stroke-width:1.0;"/><text fill="#000000" font-family="sans-serif" font-size="13" font-weight="bold" lengthAdjust="spacing" textLength="18" x="188.5" y="700.5278">15</text><text fill="#000000" font-family="sans-serif" font-size="13" lengthAdjust="spacing" textLength="175" x="210.5" y="700.5278">매칭 취소 메세지 "cancel" 생성</text><line style="stroke:#000000;stroke-width:1.0;stroke-dasharray:2.0,2.0;" x1="137.5" x2="407.5" y1="727.5938" y2="727.5938"/><text fill="#000000" font-family="sans-serif" font-size="11" font-weight="bold" lengthAdjust="spacing" textLength="92" x="142.5" y="737.8042">[정원이 다 찬 경우]</text><line style="stroke:#181818;stroke-width:1.0;" x1="181.5" x2="223.5" y1="762.5313" y2="762.5313"/><line style="stroke:#181818;stroke-width:1.0;" x1="223.5" x2="223.5" y1="762.5313" y2="775.5313"/><line style="stroke:#181818;stroke-width:1.0;" x1="182.5" x2="223.5" y1="775.5313" y2="775.5313"/><polygon fill="#181818" points="192.5,771.5313,182.5,775.5313,192.5,779.5313,188.5,775.5313" style="stroke:#181818;stroke-width:1.0;"/><text fill="#000000" font-family="sans-serif" font-size="13" font-weight="bold" lengthAdjust="spacing" textLength="18" x="188.5" y="757.4653">16</text><text fill="#000000" font-family="sans-serif" font-size="13" lengthAdjust="spacing" textLength="185" x="210.5" y="757.4653">매칭 성공 메세지 "success" 생성</text><path d="M10,804.5313 L74,804.5313 L74,811.6641 L64,821.6641 L10,821.6641 L10,804.5313 " fill="#EEEEEE" style="stroke:#000000;stroke-width:1.5;"/><rect fill="none" height="119.3359" style="stroke:#000000;stroke-width:1.5;" width="566" x="10" y="804.5313"/><text fill="#000000" font-family="sans-serif" font-size="13" font-weight="bold" lengthAdjust="spacing" textLength="19" x="25" y="817.5981">alt</text><text fill="#000000" font-family="sans-serif" font-size="11" font-weight="bold" lengthAdjust="spacing" textLength="155" x="89" y="816.7417">[메세지가 "success" 일 경우]</text><polygon fill="#181818" points="527.5,838.7969,537.5,842.7969,527.5,846.7969,531.5,842.7969" style="stroke:#181818;stroke-width:1.0;"/><line style="stroke:#181818;stroke-width:1.0;" x1="181.5" x2="533.5" y1="842.7969" y2="842.7969"/><text fill="#000000" font-family="sans-serif" font-size="13" font-weight="bold" lengthAdjust="spacing" textLength="18" x="188.5" y="837.731">17</text><text fill="#000000" font-family="sans-serif" font-size="13" lengthAdjust="spacing" textLength="170" x="210.5" y="837.731">acceptTime에 동의 시간 추가</text><polygon fill="#181818" points="53.5,867.9297,43.5,871.9297,53.5,875.9297,49.5,871.9297" style="stroke:#181818;stroke-width:1.0;"/><line style="stroke:#181818;stroke-width:1.0;" x1="47.5" x2="170.5" y1="871.9297" y2="871.9297"/><text fill="#000000" font-family="sans-serif" font-size="13" font-weight="bold" lengthAdjust="spacing" textLength="18" x="59.5" y="866.8638">18</text><text fill="#000000" font-family="sans-serif" font-size="13" lengthAdjust="spacing" textLength="64" x="81.5" y="866.8638">메세지 전달</text><line style="stroke:#000000;stroke-width:1.0;stroke-dasharray:2.0,2.0;" x1="10" x2="576" y1="880.9297" y2="880.9297"/><text fill="#000000" font-family="sans-serif" font-size="11" font-weight="bold" lengthAdjust="spacing" textLength="165" x="15" y="891.1401">[메세지가 "success" 아닐 경우]</text><polygon fill="#181818" points="53.5,911.8672,43.5,915.8672,53.5,919.8672,49.5,915.8672" style="stroke:#181818;stroke-width:1.0;"/><line style="stroke:#181818;stroke-width:1.0;" x1="47.5" x2="170.5" y1="915.8672" y2="915.8672"/><text fill="#000000" font-family="sans-serif" font-size="13" font-weight="bold" lengthAdjust="spacing" textLength="18" x="59.5" y="910.8013">19</text><text fill="#000000" font-family="sans-serif" font-size="13" lengthAdjust="spacing" textLength="64" x="81.5" y="910.8013">메세지 전달</text><!--MD5=[aa7779b0195c57c4311bb7f6643f87be]
@startuml
autonumber

title Matching Position System : 매칭
actor Client

activate Server
Client -> Server : 회원 시퀀스 전달

Server -> MariaDB : 회원 정보 및 SETTING 정보 조회

activate MariaDB
MariaDB -> Server : 회원 정보 및 SETTING 정보 전달
deactivate MariaDB

Server -> Redis : 전체 teamList 조회

activate Redis
Redis -> Server : 전체 teamList 전달
deactivate Redis

Server - -> Server : 회원의 MMR 범위와 일치하는 MMR LIST 생성

Server -> Redis : position 정보 조회
activate Redis
Redis -> Server : position 정보 전달
deactivate Redis

Server - -> Server : 회원의 position 일치하는 TEAM 정보 생성

alt 일치하는 팀이 있는 경우
Server -> Redis : 해당 팀에 회원 정보 추가
else 일치하는 팀이 없는 경우
Server -> Redis : 새로운 팀 생성해서 회원 정보 추가
end

alt 매칭 시간이 1시간 넘은 경우
  Server -> Server : 매칭 실패 메세지 "auto_cancel" 생성

else 매칭 시간이 1시간이 넘지 않은 경우
  Server -> Redis : match 회원 팀 정보 조회
  activate Redis
  Redis -> Server : match 회원 팀 정보 전달
  deactivate Redis

    alt 회원이 매칭을 중도 취소한경우 
      Server -> Server : 매칭 취소 메세지 "cancel" 생성
  
    else 정원이 다 찬 경우
      Server -> Server : 매칭 성공 메세지 "success" 생성 
    end
end

alt 메세지가 "success" 일 경우
  Server -> Redis : acceptTime에 동의 시간 추가
  Server -> Client : 메세지 전달
else 메세지가 "success" 아닐 경우
  Server -> Client : 메세지 전달
end
deactivate Server
@enduml

PlantUML version 1.2022.7(Mon Aug 22 17:01:30 UTC 2022)
(GPL source distribution)
Java Runtime: OpenJDK Runtime Environment
JVM: OpenJDK 64-Bit Server VM
Default Encoding: UTF-8
Language: en
Country: null
--></g></svg>